<mxfile host="app.diagrams.net" modified="2023-02-23T13:46:22.719Z" agent="5.0 (Windows)" etag="BRwHQmulWyXjFRozaI__" version="20.8.23" type="github">
  <diagram name="Strona-1" id="vr0HazyEW1_FsFbMvBT1">
    <mxGraphModel dx="1434" dy="739" grid="1" gridSize="10" guides="1" tooltips="1" connect="1" arrows="1" fold="1" page="1" pageScale="1" pageWidth="827" pageHeight="1169" math="0" shadow="0">
      <root>
        <mxCell id="0" />
        <mxCell id="1" parent="0" />
        <mxCell id="6Gy8Pxh212jU6h-VtnWQ-6" style="edgeStyle=orthogonalEdgeStyle;rounded=0;orthogonalLoop=1;jettySize=auto;html=1;exitX=0.5;exitY=1;exitDx=0;exitDy=0;entryX=0.5;entryY=0;entryDx=0;entryDy=0;" edge="1" parent="1" source="6Gy8Pxh212jU6h-VtnWQ-1" target="6Gy8Pxh212jU6h-VtnWQ-3">
          <mxGeometry relative="1" as="geometry" />
        </mxCell>
        <mxCell id="6Gy8Pxh212jU6h-VtnWQ-1" value="start" style="ellipse;whiteSpace=wrap;html=1;" vertex="1" parent="1">
          <mxGeometry x="354" y="30" width="120" height="80" as="geometry" />
        </mxCell>
        <mxCell id="6Gy8Pxh212jU6h-VtnWQ-2" value="stop" style="ellipse;whiteSpace=wrap;html=1;" vertex="1" parent="1">
          <mxGeometry x="580" y="490" width="120" height="80" as="geometry" />
        </mxCell>
        <mxCell id="6Gy8Pxh212jU6h-VtnWQ-7" style="edgeStyle=orthogonalEdgeStyle;rounded=0;orthogonalLoop=1;jettySize=auto;html=1;exitX=0.5;exitY=1;exitDx=0;exitDy=0;" edge="1" parent="1" source="6Gy8Pxh212jU6h-VtnWQ-3" target="6Gy8Pxh212jU6h-VtnWQ-4">
          <mxGeometry relative="1" as="geometry" />
        </mxCell>
        <mxCell id="6Gy8Pxh212jU6h-VtnWQ-3" value="&lt;div&gt;i = 0&lt;/div&gt;&lt;div&gt;iloczyn = 0&lt;br&gt;&lt;/div&gt;" style="rounded=0;whiteSpace=wrap;html=1;" vertex="1" parent="1">
          <mxGeometry x="354" y="200" width="120" height="60" as="geometry" />
        </mxCell>
        <mxCell id="6Gy8Pxh212jU6h-VtnWQ-8" style="edgeStyle=orthogonalEdgeStyle;rounded=0;orthogonalLoop=1;jettySize=auto;html=1;exitX=0;exitY=0.5;exitDx=0;exitDy=0;entryX=1;entryY=0.5;entryDx=0;entryDy=0;" edge="1" parent="1" source="6Gy8Pxh212jU6h-VtnWQ-4" target="6Gy8Pxh212jU6h-VtnWQ-5">
          <mxGeometry relative="1" as="geometry" />
        </mxCell>
        <mxCell id="6Gy8Pxh212jU6h-VtnWQ-13" style="edgeStyle=orthogonalEdgeStyle;rounded=0;orthogonalLoop=1;jettySize=auto;html=1;exitX=1;exitY=0.5;exitDx=0;exitDy=0;entryX=0;entryY=0.5;entryDx=0;entryDy=0;" edge="1" parent="1" source="6Gy8Pxh212jU6h-VtnWQ-4" target="6Gy8Pxh212jU6h-VtnWQ-12">
          <mxGeometry relative="1" as="geometry" />
        </mxCell>
        <mxCell id="6Gy8Pxh212jU6h-VtnWQ-4" value="i &amp;lt; długości tablicy a" style="rhombus;whiteSpace=wrap;html=1;" vertex="1" parent="1">
          <mxGeometry x="350" y="330" width="140" height="100" as="geometry" />
        </mxCell>
        <mxCell id="6Gy8Pxh212jU6h-VtnWQ-9" style="edgeStyle=orthogonalEdgeStyle;rounded=0;orthogonalLoop=1;jettySize=auto;html=1;exitX=0.5;exitY=0;exitDx=0;exitDy=0;entryX=0.5;entryY=0;entryDx=0;entryDy=0;" edge="1" parent="1" source="6Gy8Pxh212jU6h-VtnWQ-5" target="6Gy8Pxh212jU6h-VtnWQ-4">
          <mxGeometry relative="1" as="geometry" />
        </mxCell>
        <mxCell id="6Gy8Pxh212jU6h-VtnWQ-5" value="&lt;div&gt;iloczyn = a [1]&lt;/div&gt;&lt;div&gt;i= [*]&lt;br&gt;&lt;/div&gt;" style="rounded=0;whiteSpace=wrap;html=1;" vertex="1" parent="1">
          <mxGeometry x="120" y="350" width="120" height="60" as="geometry" />
        </mxCell>
        <mxCell id="6Gy8Pxh212jU6h-VtnWQ-10" value="TAK" style="text;html=1;strokeColor=none;fillColor=none;align=center;verticalAlign=middle;whiteSpace=wrap;rounded=0;" vertex="1" parent="1">
          <mxGeometry x="270" y="330" width="60" height="30" as="geometry" />
        </mxCell>
        <mxCell id="6Gy8Pxh212jU6h-VtnWQ-11" value="NIE" style="text;html=1;strokeColor=none;fillColor=none;align=center;verticalAlign=middle;whiteSpace=wrap;rounded=0;" vertex="1" parent="1">
          <mxGeometry x="500" y="330" width="60" height="30" as="geometry" />
        </mxCell>
        <mxCell id="6Gy8Pxh212jU6h-VtnWQ-14" style="edgeStyle=orthogonalEdgeStyle;rounded=0;orthogonalLoop=1;jettySize=auto;html=1;exitX=0.5;exitY=1;exitDx=0;exitDy=0;entryX=0.5;entryY=0;entryDx=0;entryDy=0;" edge="1" parent="1" source="6Gy8Pxh212jU6h-VtnWQ-12" target="6Gy8Pxh212jU6h-VtnWQ-2">
          <mxGeometry relative="1" as="geometry" />
        </mxCell>
        <mxCell id="6Gy8Pxh212jU6h-VtnWQ-12" value="wyświetl suma" style="rounded=0;whiteSpace=wrap;html=1;" vertex="1" parent="1">
          <mxGeometry x="580" y="350" width="120" height="60" as="geometry" />
        </mxCell>
      </root>
    </mxGraphModel>
  </diagram>
</mxfile>
